<svg width="24" height="24" viewBox="0 0 24 24" fill="none" xmlns="http://www.w3.org/2000/svg">
<g id="calendar">
<path id="Vector" d="M8.75369 4C8.75369 3.72386 8.52983 3.5 8.25369 3.5C7.97755 3.5 7.75369 3.72386 7.75369 4H8.75369ZM7.75369 6.81583C7.75369 7.09197 7.97755 7.31583 8.25369 7.31583C8.52983 7.31583 8.75369 7.09197 8.75369 6.81583H7.75369ZM15.222 6.81583C15.222 7.09197 15.4459 7.31583 15.722 7.31583C15.9982 7.31583 16.222 7.09197 16.222 6.81583H15.222ZM16.222 4.00003C16.222 3.72388 15.9982 3.50003 15.722 3.50003C15.4459 3.50003 15.222 3.72388 15.222 4.00003H16.222ZM4.51954 17.1994L5.01954 17.1994V17.1994H4.51954ZM4.51954 7.86398L5.01954 7.86398V7.86398H4.51954ZM7.75369 4V6.81583H8.75369V4H7.75369ZM15.722 5.56336H16.6556V4.56336H15.722V5.56336ZM15.222 5.06336V6.81583H16.222V5.06336H15.222ZM16.222 5.06336V4.00003H15.222V5.06336H16.222ZM4.01954 17.1994C4.01953 19.0223 5.49727 20.5 7.32015 20.5V19.5C6.04956 19.5 5.01953 18.47 5.01954 17.1994L4.01954 17.1994ZM18.9562 17.1994C18.9562 18.47 17.9262 19.5 16.6556 19.5V20.5C18.4784 20.5 19.9562 19.0223 19.9562 17.1994H18.9562ZM19.9562 7.86398C19.9562 6.0411 18.4784 4.56336 16.6556 4.56336V5.56336C17.9262 5.56336 18.9562 6.59339 18.9562 7.86398H19.9562ZM5.01954 7.86398C5.01954 6.59338 6.04956 5.56336 7.32016 5.56336V4.56336C5.49728 4.56336 4.01954 6.0411 4.01954 7.86398H5.01954ZM4.51953 10.3331H19.4562V9.33312H4.51953V10.3331ZM18.9562 7.86398V17.1994H19.9562V7.86398H18.9562ZM5.01954 17.1994L5.01954 7.86398L4.01954 7.86398L4.01954 17.1994H5.01954ZM7.32016 5.56336H15.722V4.56336H7.32016V5.56336ZM16.6556 19.5H7.32015V20.5H16.6556V19.5Z" fill="#131214"/>
</g>
</svg>
