<svg width="24" height="24" viewBox="0 0 24 24" fill="none" xmlns="http://www.w3.org/2000/svg">
<g id="Outline/photo-camera">
<path id="Vector" fill-rule="evenodd" clip-rule="evenodd" d="M10.0704 3.5C9.23448 3.5 8.45391 3.91775 7.99024 4.61325L7.17771 5.83205C6.89951 6.24935 6.43116 6.5 5.92963 6.5H4C2.61929 6.5 1.5 7.61929 1.5 9V18C1.5 19.3807 2.61929 20.5 4 20.5H20C21.3807 20.5 22.5 19.3807 22.5 18V9C22.5 7.61929 21.3807 6.5 20 6.5H18.0704C17.5688 6.5 17.1005 6.24935 16.8223 5.83205L16.0098 4.61325C15.5461 3.91775 14.7655 3.5 13.9296 3.5H10.0704ZM8.82229 5.16795C9.10049 4.75065 9.56884 4.5 10.0704 4.5H13.9296C14.4312 4.5 14.8995 4.75065 15.1777 5.16795L15.9902 6.38675C16.4539 7.08225 17.2345 7.5 18.0704 7.5H20C20.8284 7.5 21.5 8.17157 21.5 9V18C21.5 18.8284 20.8284 19.5 20 19.5H4C3.17157 19.5 2.5 18.8284 2.5 18V9C2.5 8.17157 3.17157 7.5 4 7.5H5.92963C6.76552 7.5 7.54609 7.08225 8.00976 6.38675L8.82229 5.16795ZM9.5 13C9.5 11.6193 10.6193 10.5 12 10.5C13.3807 10.5 14.5 11.6193 14.5 13C14.5 14.3807 13.3807 15.5 12 15.5C10.6193 15.5 9.5 14.3807 9.5 13ZM12 9.5C10.067 9.5 8.5 11.067 8.5 13C8.5 14.933 10.067 16.5 12 16.5C13.933 16.5 15.5 14.933 15.5 13C15.5 11.067 13.933 9.5 12 9.5Z" fill="black"/>
</g>
</svg>
