<svg width="24" height="23" viewBox="0 0 24 23" fill="none" xmlns="http://www.w3.org/2000/svg">
<g filter="url(#filter0_d_1007_9706)">
<path d="M5.00014 13H18.1359C19.1487 13 19.6551 13 20.0582 12.8112C20.4134 12.6448 20.7118 12.3777 20.9163 12.0432C21.1485 11.6633 21.2044 11.16 21.3163 10.1534L21.9013 4.88835C21.9355 4.58088 21.9525 4.42715 21.9031 4.30816C21.8597 4.20366 21.7821 4.11697 21.683 4.06228C21.5702 4 21.4155 4 21.1062 4H4.50014M2 1H3.24844C3.51306 1 3.64537 1 3.74889 1.05032C3.84002 1.09463 3.91554 1.16557 3.96544 1.25376C4.02212 1.35394 4.03037 1.48599 4.04688 1.7501L4.95312 16.2499C4.96963 16.514 4.97788 16.6461 5.03456 16.7462C5.08446 16.8344 5.15998 16.9054 5.25111 16.9497C5.35463 17 5.48694 17 5.75156 17H19M7.5 20.5H7.51M16.5 20.5H16.51M8 20.5C8 20.7761 7.77614 21 7.5 21C7.22386 21 7 20.7761 7 20.5C7 20.2239 7.22386 20 7.5 20C7.77614 20 8 20.2239 8 20.5ZM17 20.5C17 20.7761 16.7761 21 16.5 21C16.2239 21 16 20.7761 16 20.5C16 20.2239 16.2239 20 16.5 20C16.7761 20 17 20.2239 17 20.5Z" stroke="black" stroke-width="1.5" stroke-linecap="round" stroke-linejoin="round" shape-rendering="crispEdges"/>
</g>
<defs>
<filter id="filter0_d_1007_9706" x="-2.75" y="0.25" width="29.434" height="29.5" filterUnits="userSpaceOnUse" color-interpolation-filters="sRGB">
<feFlood flood-opacity="0" result="BackgroundImageFix"/>
<feColorMatrix in="SourceAlpha" type="matrix" values="0 0 0 0 0 0 0 0 0 0 0 0 0 0 0 0 0 0 127 0" result="hardAlpha"/>
<feOffset dy="4"/>
<feGaussianBlur stdDeviation="2"/>
<feComposite in2="hardAlpha" operator="out"/>
<feColorMatrix type="matrix" values="0 0 0 0 0 0 0 0 0 0 0 0 0 0 0 0 0 0 0.25 0"/>
<feBlend mode="normal" in2="BackgroundImageFix" result="effect1_dropShadow_1007_9706"/>
<feBlend mode="normal" in="SourceGraphic" in2="effect1_dropShadow_1007_9706" result="shape"/>
</filter>
</defs>
</svg>
