<svg width="36" height="28" viewBox="0 0 36 28" fill="none" xmlns="http://www.w3.org/2000/svg">
<g id="credit-card">
<path id="Vector" d="M21.9471 15.3845C21.5329 15.3845 21.1971 15.7203 21.1971 16.1345C21.1971 16.5488 21.5329 16.8845 21.9471 16.8845V15.3845ZM25.6854 16.8845C26.0996 16.8845 26.4354 16.5488 26.4354 16.1345C26.4354 15.7203 26.0996 15.3845 25.6854 15.3845V16.8845ZM7.28565 16.5L8.03565 16.5V16.5L7.28565 16.5ZM7.28566 9.5L8.03566 9.5V9.5H7.28566ZM7.28564 11.4167H31.2856V9.91667H7.28564V11.4167ZM21.9471 16.8845H25.6854V15.3845H21.9471V16.8845ZM6.53565 16.5C6.53565 19.0117 9.07248 20.75 11.7857 20.75V19.25C9.52825 19.25 8.03565 17.8543 8.03565 16.5L6.53565 16.5ZM30.5357 16.5C30.5357 17.8543 29.0431 19.25 26.7857 19.25V20.75C29.4988 20.75 32.0357 19.0117 32.0357 16.5H30.5357ZM32.0357 9.5C32.0357 6.9883 29.4988 5.25 26.7857 5.25V6.75C29.0431 6.75 30.5357 8.14571 30.5357 9.5H32.0357ZM8.03566 9.5C8.03566 8.14571 9.52826 6.75 11.7857 6.75V5.25C9.0725 5.25 6.53566 6.9883 6.53566 9.5H8.03566ZM30.5357 9.5V16.5H32.0357V9.5H30.5357ZM8.03565 16.5L8.03566 9.5L6.53566 9.5L6.53565 16.5L8.03565 16.5ZM11.7857 6.75H26.7857V5.25H11.7857V6.75ZM26.7857 19.25H11.7857V20.75H26.7857V19.25Z" fill="white"/>
</g>
</svg>
