<svg width="24" height="24" viewBox="0 0 24 24" fill="none" xmlns="http://www.w3.org/2000/svg">
<g id="Outline/home">
<path id="Vector" fill-rule="evenodd" clip-rule="evenodd" d="M11.0122 4.52885C11.5778 4.034 12.4222 4.034 12.9878 4.52885L18.9878 9.77885C19.3133 10.0637 19.5 10.4752 19.5 10.9077V19.0002C19.5 19.8286 18.8284 20.5002 18 20.5002H6C5.17157 20.5002 4.5 19.8286 4.5 19.0002V10.9077C4.5 10.4752 4.68672 10.0637 5.01224 9.77885L11.0122 4.52885ZM13.6463 3.77627C12.7037 2.95153 11.2963 2.95153 10.3537 3.77627L4.35374 9.02627C3.8112 9.50099 3.5 10.1868 3.5 10.9077V19.0002C3.5 20.3809 4.61929 21.5002 6 21.5002H18C19.3807 21.5002 20.5 20.3809 20.5 19.0002V10.9077C20.5 10.1868 20.1888 9.501 19.6463 9.02627L13.6463 3.77627ZM8 16.5001C7.72386 16.5001 7.5 16.724 7.5 17.0001C7.5 17.2763 7.72386 17.5001 8 17.5001H16C16.2761 17.5001 16.5 17.2763 16.5 17.0001C16.5 16.724 16.2761 16.5001 16 16.5001H8Z" fill="black"/>
</g>
</svg>
