<svg width="24" height="24" viewBox="0 0 24 24" fill="none" xmlns="http://www.w3.org/2000/svg">
<g id="shopping-bag">
<path id="Vector" d="M15.5898 12C15.5898 11.7239 15.3659 11.5 15.0898 11.5C14.8136 11.5 14.5898 11.7239 14.5898 12H15.5898ZM11.8898 15.2V15.7V15.2ZM9.18979 12C9.18979 11.7239 8.96593 11.5 8.68979 11.5C8.41365 11.5 8.18979 11.7239 8.18979 12H9.18979ZM19.8735 8.57826L20.3524 8.43459L19.8735 8.57826ZM4.00001 9.4403L4.50001 9.4403V9.4403H4.00001ZM4.12653 8.57827L3.64762 8.43459L4.12653 8.57827ZM4 17L4.5 17L4 17ZM19.1414 6.13795L18.6625 6.28163V6.28163L19.1414 6.13795ZM4.85862 6.13796L5.33753 6.28164L4.85862 6.13796ZM14.5898 12C14.5898 12.7161 14.3053 13.4028 13.799 13.9092L14.5061 14.6163C15.2 13.9224 15.5898 12.9813 15.5898 12H14.5898ZM13.799 13.9092C13.2926 14.4155 12.6059 14.7 11.8898 14.7V15.7C12.8711 15.7 13.8122 15.3102 14.5061 14.6163L13.799 13.9092ZM11.8898 14.7C11.1737 14.7 10.4869 14.4155 9.9806 13.9092L9.27349 14.6163C9.96738 15.3102 10.9085 15.7 11.8898 15.7V14.7ZM9.9806 13.9092C9.47425 13.4028 9.18979 12.7161 9.18979 12H8.18979C8.18979 12.9813 8.57961 13.9224 9.27349 14.6163L9.9806 13.9092ZM4 9.5H19.7796V8.5H4V9.5ZM4.60544 8.72194L5.33753 6.28164L4.3797 5.99429L3.64762 8.43459L4.60544 8.72194ZM18.6625 6.28163L19.3946 8.72193L20.3524 8.43459L19.6203 5.99428L18.6625 6.28163ZM19.3946 8.72193C19.4645 8.95499 19.5 9.197 19.5 9.44031H20.5C20.5 9.09967 20.4503 8.76086 20.3524 8.43459L19.3946 8.72193ZM4.50001 9.4403C4.50001 9.19699 4.53553 8.95499 4.60544 8.72194L3.64762 8.43459C3.54974 8.76086 3.50001 9.09967 3.50001 9.4403H4.50001ZM3.5 17C3.5 18.933 5.067 20.5 7 20.5V19.5C5.61929 19.5 4.5 18.3807 4.5 17L3.5 17ZM19.5 17C19.5 18.3807 18.3807 19.5 17 19.5V20.5C18.933 20.5 20.5 18.933 20.5 17H19.5ZM16.2679 4.5C17.3719 4.5 18.3452 5.22417 18.6625 6.28163L19.6203 5.99428C19.1762 4.51383 17.8135 3.5 16.2679 3.5V4.5ZM7.7321 3.5C6.18647 3.5 4.82383 4.51384 4.3797 5.99429L5.33753 6.28164C5.65477 5.22417 6.62807 4.5 7.7321 4.5V3.5ZM19.5 9.44031V17H20.5V9.44031H19.5ZM4.5 17L4.50001 9.4403L3.50001 9.4403L3.5 17L4.5 17ZM7.7321 4.5H16.2679V3.5H7.7321V4.5ZM17 19.5H7V20.5H17V19.5Z" fill="#131214"/>
</g>
</svg>
