<svg width="28" height="28" viewBox="0 0 28 28" fill="none" xmlns="http://www.w3.org/2000/svg">
<g id="shopping-cart">
<path id="Vector" d="M4.6665 4.84155H6.68533C7.53723 4.84155 8.27184 5.44022 8.44378 6.27459L10.3662 15.6037C10.5955 16.7162 11.5749 17.5145 12.7108 17.5145H19.9239C21.0296 17.5145 21.9915 16.7572 22.2509 15.6824L23.2822 11.4107C23.5549 10.2812 22.699 9.19402 21.5369 9.19402H9.01897M12.5009 22.2514C12.5009 22.7322 12.1112 23.1219 11.6304 23.1219C11.1497 23.1219 10.76 22.7322 10.76 22.2514C10.76 21.7707 11.1497 21.3809 11.6304 21.3809C12.1112 21.3809 12.5009 21.7707 12.5009 22.2514ZM22.0764 22.2514C22.0764 22.7322 21.6866 23.1219 21.2059 23.1219C20.7251 23.1219 20.3354 22.7322 20.3354 22.2514C20.3354 21.7707 20.7251 21.3809 21.2059 21.3809C21.6866 21.3809 22.0764 21.7707 22.0764 22.2514Z" stroke="#131214" stroke-width="1.5" stroke-linecap="round" stroke-linejoin="round"/>
</g>
</svg>
