<svg width="24" height="24" viewBox="0 0 24 24" fill="none" xmlns="http://www.w3.org/2000/svg">
<g id="trello">
<g id="Vector">
<path d="M13.7778 15.4444C13.7778 15.9967 14.2255 16.4444 14.7778 16.4444H15.4444C15.9967 16.4444 16.4444 15.9967 16.4444 15.4444V9.44444C16.4444 8.89216 15.9967 8.44444 15.4444 8.44444H14.7778C14.2255 8.44444 13.7778 8.89216 13.7778 9.44444V15.4444Z" stroke="#131214"/>
<path d="M7.55556 15.4444C7.55556 15.9967 8.00327 16.4444 8.55556 16.4444H9.22222C9.77451 16.4444 10.2222 15.9967 10.2222 15.4444V12C10.2222 11.4477 9.77451 11 9.22222 11H8.55556C8.00327 11 7.55556 11.4477 7.55556 12V15.4444Z" stroke="#131214"/>
<path d="M17 4C18.6569 4 20 5.34315 20 7L20 17C20 18.6569 18.6568 20 17 20H6.99999C5.34314 20 3.99999 18.6569 3.99999 17V7C3.99999 5.34315 5.34314 4 6.99999 4H17Z" stroke="#131214"/>
</g>
</g>
</svg>
