<svg width="176" height="190" viewBox="0 0 176 190" fill="none" xmlns="http://www.w3.org/2000/svg">
<path d="M158.5 3.24324C123.636 23.4702 98.3761 48.9226 83.0798 73.6193C61.6218 108.264 59.7714 141.423 78.5215 156.583C81.2453 158.785 84.4037 160.608 88 162C88 104.467 117.15 75.1322 144.5 45.9669L142.703 114.829C142.703 140.674 118.164 162 88 162C57.8361 162 33.2973 140.674 33.2973 114.829V38.5C43.0048 40.5469 56.275 48.2822 66 57.5C70.3115 61.5866 80.2835 70.3512 83.0798 73.6193C81.9367 75.1518 81.9559 75.1261 83.0798 73.6193C83.5 71.4983 82.8709 68.1574 80.5 59.4983C80.0633 57.9033 76 48.5 73 43.5C73 43.5 65.4918 29.9983 47 14.1482C43.5 11.1482 33 4.4966 28 1.99829C24.3348 0.166931 21.0641 -1.52588e-05 16.6486 -1.52588e-05C12.2331 -1.52588e-05 7.99845 1.4903 4.87622 4.14351C1.754 6.79672 0 10.3957 0 14.1482V114.829C0 156.278 39.4765 189.998 88 189.998C136.523 189.998 176 156.278 176 114.829V14.1482C175.998 10.3957 176 6.49998 172 3.49998C169.375 1.53148 162.127 1.13918 158.5 3.24324Z" fill="url(#paint0_linear_5_84)"/>
<path d="M158.5 3.24324C123.636 23.4702 98.3761 48.9226 83.0798 73.6193C61.6218 108.264 59.7714 141.423 78.5215 156.583C81.2453 158.785 84.4037 160.608 88 162C88 104.467 117.15 75.1322 144.5 45.9669L142.703 114.829C142.703 140.674 118.164 162 88 162C57.8361 162 33.2973 140.674 33.2973 114.829V38.5C43.0048 40.5469 56.275 48.2822 66 57.5C70.3115 61.5866 80.2835 70.3512 83.0798 73.6193C81.9367 75.1518 81.9559 75.1261 83.0798 73.6193C83.5 71.4983 82.8709 68.1574 80.5 59.4983C80.0633 57.9033 76 48.5 73 43.5C73 43.5 65.4918 29.9983 47 14.1482C43.5 11.1482 33 4.4966 28 1.99829C24.3348 0.166931 21.0641 -1.52588e-05 16.6486 -1.52588e-05C12.2331 -1.52588e-05 7.99845 1.4903 4.87622 4.14351C1.754 6.79672 0 10.3957 0 14.1482V114.829C0 156.278 39.4765 189.998 88 189.998C136.523 189.998 176 156.278 176 114.829V14.1482C175.998 10.3957 176 6.49998 172 3.49998C169.375 1.53148 162.127 1.13918 158.5 3.24324Z" fill="url(#paint1_linear_5_84)"/>
<defs>
<linearGradient id="paint0_linear_5_84" x1="-620" y1="-42.7799" x2="-620" y2="148.93" gradientUnits="userSpaceOnUse">
<stop stop-color="#FFABAB"/>
<stop offset="1" stop-color="#FF7074"/>
</linearGradient>
<linearGradient id="paint1_linear_5_84" x1="8.71077" y1="6.03814" x2="8.71077" y2="184.817" gradientUnits="userSpaceOnUse">
<stop stop-color="#FFACAC"/>
<stop offset="1" stop-color="#FF7074"/>
</linearGradient>
</defs>
</svg>
