<svg width="24" height="24" viewBox="0 0 24 24" fill="none" xmlns="http://www.w3.org/2000/svg">
<g id="Outline/user">
<path id="Vector" fill-rule="evenodd" clip-rule="evenodd" d="M9.5 7C9.5 5.61929 10.6193 4.5 12 4.5C13.3807 4.5 14.5 5.61929 14.5 7C14.5 8.38071 13.3807 9.5 12 9.5C10.6193 9.5 9.5 8.38071 9.5 7ZM12 3.5C10.067 3.5 8.5 5.067 8.5 7C8.5 8.933 10.067 10.5 12 10.5C13.933 10.5 15.5 8.933 15.5 7C15.5 5.067 13.933 3.5 12 3.5ZM12.2692 13.5C15.6331 13.5 18.3744 16.1658 18.4958 19.5H5.50419C5.62559 16.1658 8.36687 13.5 11.7308 13.5H12.2692ZM11.7308 12.5C7.73733 12.5 4.5 15.7373 4.5 19.7308C4.5 20.1556 4.8444 20.5 5.26923 20.5H18.7308C19.1556 20.5 19.5 20.1556 19.5 19.7308C19.5 15.7373 16.2627 12.5 12.2692 12.5H11.7308Z" fill="black"/>
</g>
</svg>
